<svg width="22" height="22" viewBox="0 0 22 22" fill="none" xmlns="http://www.w3.org/2000/svg">
<path d="M11 0C4.92491 0 0 4.92491 0 11C0 17.0754 4.92491 22 11 22C17.0754 22 22 17.0754 22 11C22 4.92491 17.0754 0 11 0ZM11 20.6467C5.69284 20.6467 1.375 16.3072 1.375 11C1.375 5.6928 5.69284 1.37496 11 1.37496C16.3072 1.37496 20.625 5.69282 20.625 11C20.625 16.3071 16.3072 20.6467 11 20.6467ZM15.8125 10.3125H11.6875V6.1875C11.6875 5.808 11.3795 5.5 11 5.5C10.6205 5.5 10.3125 5.808 10.3125 6.1875V10.3125H6.1875C5.808 10.3125 5.5 10.6205 5.5 11C5.5 11.3795 5.808 11.6875 6.1875 11.6875H10.3125V15.8125C10.3125 16.192 10.6205 16.5 11 16.5C11.3795 16.5 11.6875 16.192 11.6875 15.8125V11.6875H15.8125C16.192 11.6875 16.5 11.3795 16.5 11C16.5 10.6205 16.192 10.3125 15.8125 10.3125Z" fill="#0C0814"/>
</svg>
